<svg width="424" height="424" viewBox="0 0 424 424" fill="none" xmlns="http://www.w3.org/2000/svg">
    <g clip-path="url(#clip0)">
        <path d="M423.7 211.699L211.4 423.999C211.6 423.999 211.8 423.999 212 423.999C215.4 423.999 218.8 423.899 222.2 423.799L423.4 222.599C423.6 219.199 423.6 215.799 423.6 212.399C423.7 212.099 423.7 211.899 423.7 211.699Z" fill="#39C4E2"/>
        <path d="M15.6 291.4C16.6 293.9 17.7 296.4 18.8 298.8L298.5 18.9998C296 17.8998 293.6 16.8998 291.1 15.7998L15.6 291.4Z" fill="#39C4E2"/>
        <path d="M2 239.3C2.4 242.4 2.9 245.4 3.4 248.5L248.1 3.6998C245.1 3.1998 242 2.6998 238.9 2.2998L2 239.3Z" fill="#39C4E2"/>
        <path d="M7.39999 266.7C8.09999 269.5 8.89999 272.2 9.79999 274.9L274.7 9.99961C272 9.19961 269.2 8.39961 266.5 7.59961L7.39999 266.7Z" fill="#39C4E2"/>
        <path d="M26.1 313.699C27.3 315.999 28.6 318.199 30 320.399L320.1 30.2994C317.9 28.9994 315.6 27.6994 313.4 26.3994L26.1 313.699Z" fill="#39C4E2"/>
        <path d="M207.8 0.699609L0.399988 208.1C0.399988 209.5 0.299988 210.9 0.299988 212.3C0.299988 214.4 0.299988 216.5 0.399988 218.6L218.3 0.699609C216.2 0.599609 214.1 0.599609 212 0.599609C210.6 0.599609 209.2 0.599609 207.8 0.699609Z" fill="#39C4E2"/>
        <path d="M20.3 122.5C17.5 128.4 15 134.4 12.8 140.6L140.2 13.0996C134 15.2996 128 17.7996 122.1 20.5996L20.3 122.5Z" fill="#39C4E2"/>
        <path d="M38.7 333.9C40.2 336 41.6 338 43.2 340L339.7 43.5C337.7 42 335.7 40.5 333.6 39L38.7 333.9Z" fill="#39C4E2"/>
        <path d="M4.29998 171.3C3.49998 175.5 2.79998 179.7 2.19998 184L183.7 2.5C179.4 3.1 175.2 3.8 171 4.6L4.29998 171.3Z" fill="#39C4E2"/>
        <path d="M69.5 368.8C71.3 370.5 73.2 372.1 75.1 373.7L373.5 75.3998C371.9 73.4998 370.2 71.5998 368.6 69.7998L69.5 368.8Z" fill="#39C4E2"/>
        <path d="M129.5 407.3C132 408.4 134.5 409.4 137.1 410.3L410 137.4C409 134.9 408 132.3 407 129.8L129.5 407.3Z" fill="#39C4E2"/>
        <path d="M180.8 421.7C183.9 422.2 187 422.6 190.2 422.9L422.6 190.5C422.3 187.3 421.9 184.2 421.4 181.1L180.8 421.7Z" fill="#39C4E2"/>
        <path d="M153.8 415.9C156.6 416.7 159.4 417.4 162.2 418.1L417.8 162.5C417.1 159.7 416.4 156.9 415.6 154.1L153.8 415.9Z" fill="#39C4E2"/>
        <path d="M247.1 421.099C251.6 420.399 256 419.499 260.3 418.499L418.1 260.599C419.1 256.199 420 251.799 420.7 247.399L247.1 421.099Z" fill="#39C4E2"/>
        <path d="M53.2 352.3C54.9 354.2 56.5 356 58.2 357.8L357.5 58.5C355.7 56.8 353.8 55.1 352 53.5L53.2 352.3Z" fill="#39C4E2"/>
        <path d="M293.2 407.8C300.2 404.9 307 401.6 313.5 398L397.7 313.8C401.3 307.2 404.6 300.4 407.5 293.5L293.2 407.8Z" fill="#39C4E2"/>
        <path d="M87.6 383.599C89.6 385.099 91.7 386.599 93.8 387.999L387.6 94.0994C386.2 91.9994 384.7 89.8994 383.2 87.8994L87.6 383.599Z" fill="#39C4E2"/>
        <path d="M107.5 396.399C109.8 397.699 112 398.899 114.4 400.099L399.9 114.599C398.7 112.299 397.5 109.999 396.2 107.699L107.5 396.399Z" fill="#39C4E2"/>
    </g>
    <defs>
        <clipPath id="clip0">
            <rect width="423.4" height="423.4" fill="white" transform="translate(0.299988 0.599609)"/>
        </clipPath>
    </defs>
</svg>
