<svg xmlns="http://www.w3.org/2000/svg" version="1.1" xmlns:xlink="http://www.w3.org/1999/xlink" width="71" height="65"><svg width="71" height="65" viewBox="0 0 71 65" fill="none" xmlns="http://www.w3.org/2000/svg">
<path d="M48.6679 5.36678C48.7122 11.3969 49.2502 17.4223 48.5025 23.4308C48.0317 27.2121 42.0363 27.2576 42.5119 23.4308C43.2596 17.4235 42.7216 11.3969 42.6773 5.36678C42.6485 1.50284 48.6391 1.50524 48.6679 5.36678Z" fill="#111111"></path>
<path d="M27.1242 2.88044C26.615 9.60548 28.1594 16.2203 28.284 22.931C28.3559 26.7961 22.3653 26.7889 22.2934 22.931C22.1688 16.2203 20.6244 9.60428 21.1336 2.88044C21.4236 -0.946355 27.4166 -0.973912 27.1242 2.88044Z" fill="#111111"></path>
<path d="M70.8941 41.6267C66.8565 57.4778 51.8141 65.0403 36.4182 64.9325C19.986 64.8175 6.8151 56.6798 0.985055 41.1294C-0.373612 37.5039 5.41929 35.9536 6.76238 39.5359C11.7274 52.7823 22.7992 58.5273 36.4182 58.9419C49.1411 59.3301 61.7848 53.1202 65.118 40.0332C66.0705 36.2926 71.8478 37.8801 70.8941 41.6267Z" fill="#111111"></path>
</svg><style>@media (prefers-color-scheme: light) { :root { filter: none; } }
</style></svg>